<svg width="38" height="36" viewBox="0 0 38 36" fill="none" xmlns="http://www.w3.org/2000/svg">
<path d="M18.6375 0.00249997C8.36 0.00249997 0 8.365 0 18.64C0 26.4688 4.85 33.1838 11.7 35.94L16.25 24.595C14.8667 24.0409 13.7194 23.0225 13.0053 21.7145C12.2912 20.4066 12.0548 18.8908 12.3368 17.4276C12.6187 15.9643 13.4014 14.6449 14.5503 13.6959C15.6993 12.747 17.1428 12.2277 18.633 12.2273C20.1232 12.2269 21.567 12.7454 22.7164 13.6938C23.8659 14.6421 24.6493 15.9612 24.932 17.4243C25.2147 18.8874 24.9791 20.4033 24.2657 21.7116C23.5523 23.0199 22.4056 24.039 21.0225 24.5938L25.5725 35.9375C32.4225 33.18 37.2725 26.465 37.2725 18.6375C37.275 8.3625 28.9137 0 18.6375 0V0.00249997Z" fill="#2DCC70"/>
</svg>
